<?xml version="1.0" encoding="UTF-8" standalone="no"?><!DOCTYPE svg PUBLIC "-//W3C//DTD SVG 1.1//EN" "http://www.w3.org/Graphics/SVG/1.1/DTD/svg11.dtd"><svg width="100%" height="100%" viewBox="0 0 4863 4097" version="1.1" xmlns="http://www.w3.org/2000/svg" xmlns:xlink="http://www.w3.org/1999/xlink" xml:space="preserve" xmlns:serif="http://www.serif.com/" style="fill-rule:evenodd;clip-rule:evenodd;"><g id="Layer-1" serif:id="Layer 1"><g id="The-Bean" serif:id="The Bean"><path d="M2477.47,890.595c-254.092,1.446 -495.446,39.684 -718.388,103.463c-677.158,183.704 -1324.06,725.15 -1591.02,1325.02c-285.771,483.72 17.988,1887.83 1264.48,1024.65c365.946,-234.371 731.563,-452.871 987.325,-454.55c295.279,-6.763 544.796,171.7 907.054,365.07c235.825,130.5 400.784,269.371 621.975,317.35c696.117,144.859 964.409,-608.841 796.1,-1107.88c-131.929,-509.317 -543.333,-907.504 -942.387,-1198.99c-358.658,-243.388 -807.008,-370.638 -1310.1,-374.167c-5.017,-0 -10.025,0.008 -15.029,0.037Z" style="fill:url(#_Radial1);fill-rule:nonzero;"/><path d="M2492.5,890.555c503.096,3.534 951.446,130.78 1310.1,374.171c399.054,291.488 810.458,689.667 942.392,1198.98c168.304,499.045 -99.984,1252.74 -796.104,1107.88c-221.188,-47.979 -386.15,-186.85 -621.971,-317.346c-362.263,-193.371 -611.779,-371.837 -907.059,-365.071c-255.762,1.675 -621.379,220.175 -987.325,454.55c-1246.49,863.179 -1550.25,-540.933 -1264.47,-1024.65c266.958,-599.866 913.862,-1141.31 1591.02,-1325.02c222.946,-63.779 464.296,-102.012 718.388,-103.462c5.004,-0.025 10.012,-0.038 15.029,-0.038Z" style="fill:none;fill-rule:nonzero;stroke:#fcfaff;stroke-width:33.33px;"/></g><g id="Paw"><g opacity="0.9"><path d="M2290.93,1745.86c146.33,53.579 322.03,-59.054 392.484,-251.55c70.416,-192.504 8.887,-391.937 -137.421,-445.483c-146.363,-53.504 -322.042,59.096 -392.492,251.592c-70.421,192.504 -8.891,391.937 137.429,445.441" style="fill:#82addd;fill-rule:nonzero;"/></g><path d="M2290.92,1745.89c146.232,53.51 322.101,-59.219 392.491,-251.58c70.39,-192.361 8.816,-391.977 -137.416,-445.487c-146.232,-53.51 -322.101,59.219 -392.491,251.58c-70.39,192.361 -8.816,391.977 137.416,445.487Z" style="fill:none;stroke:#fcfaff;stroke-width:33.33px;stroke-miterlimit:10;"/><g opacity="0.9"><path d="M1734.91,2052.87c153.071,-13.271 263.008,-187.212 245.612,-388.633c-17.433,-201.35 -155.662,-353.846 -308.737,-340.646c-153.058,13.312 -262.988,187.283 -245.571,388.675c17.438,201.35 155.642,353.837 308.696,340.604" style="fill:#82addd;fill-rule:nonzero;"/></g><path d="M1734.93,2052.87c152.967,-13.24 263.013,-187.379 245.594,-388.629c-17.42,-201.25 -155.752,-353.89 -308.719,-340.65c-152.967,13.241 -263.014,187.38 -245.594,388.63c17.42,201.25 155.752,353.89 308.719,340.649Z" style="fill:none;stroke:#fcfaff;stroke-width:33.33px;stroke-miterlimit:10;"/><g opacity="0.9"><path d="M2927.03,2046.05c134.35,78.966 327.387,-0.338 431.212,-177.05c103.825,-176.825 79.079,-384.029 -55.287,-462.992c-134.346,-78.892 -327.429,0.45 -431.234,177.163c-103.816,176.795 -79.037,383.991 55.309,462.879" style="fill:#82addd;fill-rule:nonzero;"/></g><path d="M2927.03,2046.1c134.268,78.862 327.505,-0.519 431.251,-177.155c103.746,-176.636 78.967,-384.067 -55.301,-462.929c-134.268,-78.862 -327.506,0.519 -431.252,177.155c-103.746,176.636 -78.966,384.067 55.302,462.929Z" style="fill:none;stroke:#fcfaff;stroke-width:33.33px;stroke-miterlimit:10;"/><g opacity="0.9"><path d="M3646.59,2255.53c-87.104,-126.55 -292.67,-136.329 -459.187,-21.783c-166.55,114.625 -230.913,310.083 -143.833,436.666c87.083,126.546 292.666,136.338 459.187,21.746c166.496,-114.587 230.896,-310.046 143.833,-436.629" style="fill:#82addd;fill-rule:nonzero;"/></g><path d="M3646.58,2255.53c-87.034,-126.502 -292.797,-136.254 -459.205,-21.764c-166.409,114.491 -230.85,310.146 -143.816,436.648c87.035,126.502 292.798,136.254 459.206,21.764c166.408,-114.49 230.85,-310.146 143.815,-436.648Z" style="fill:none;stroke:#fcfaff;stroke-width:33.33px;stroke-miterlimit:10;"/><g opacity="0.9"><path d="M2752.16,2279.42c-16.613,-114.958 -87.083,-219.796 -199.717,-272.966c-112.616,-53.134 -238.354,-40.867 -337.629,19.345c-109.725,66.588 -179.917,153.58 -274.421,191.6c-94.496,38.021 -359.166,-75.212 -523.958,224.03c-116.388,211.362 -9.546,478.558 208.642,581.512c165.837,78.258 297.091,69.517 393.45,114.963c96.345,45.441 173.041,152.345 338.866,230.591c218.179,102.959 492.346,15.6 581.509,-208.621c126.25,-317.433 -129.45,-449.754 -160.196,-546.87c-30.713,-97.1 -8.175,-206.588 -26.546,-333.584" style="fill:#82addd;fill-rule:nonzero;"/></g><path d="M2752.16,2279.42c-16.613,-114.958 -87.083,-219.796 -199.717,-272.966c-112.616,-53.134 -238.354,-40.867 -337.629,19.345c-109.725,66.588 -179.917,153.58 -274.421,191.6c-94.496,38.021 -359.166,-75.212 -523.958,224.03c-116.388,211.362 -9.546,478.558 208.642,581.512c165.837,78.258 297.091,69.517 393.45,114.963c96.345,45.441 173.041,152.345 338.866,230.591c218.179,102.959 492.346,15.6 581.509,-208.621c126.25,-317.433 -129.45,-449.754 -160.196,-546.87c-30.713,-97.1 -8.175,-206.588 -26.546,-333.584Z" style="fill:none;fill-rule:nonzero;stroke:#fcfaff;stroke-width:33.33px;stroke-miterlimit:10;"/></g><g id="CHISTAR"><path d="M2345.33,2699.41l237.95,65.921l-176.05,-172.838l176.05,-172.837l-237.95,65.92l-61.9,-238.758l-61.096,238.758l-237.95,-65.92l176.05,172.837l-176.05,172.838l237.95,-65.921l61.096,238.758l61.9,-238.758Z" style="fill:none;fill-rule:nonzero;stroke:#fcfaff;stroke-width:33.33px;stroke-linejoin:round;stroke-miterlimit:10;"/><path d="M2283.43,2938.17l-61.096,-238.756l-237.952,65.92l176.052,-172.837l-176.052,-172.837l237.952,65.919l61.096,-238.756l61.899,238.756l237.953,-65.919l-176.053,172.837l176.053,172.837l-237.953,-65.92l-61.899,238.756Z" style="fill:#e4002b;fill-rule:nonzero;"/><path d="M2345.33,2699.41l237.95,65.921l-176.05,-172.838l176.05,-172.837l-237.95,65.92l-61.9,-238.758l-61.096,238.758l-237.95,-65.92l176.05,172.837l-176.05,172.838l237.95,-65.921l61.096,238.758l61.9,-238.758Z" style="fill:none;fill-rule:nonzero;stroke:#fcfaff;stroke-width:33.33px;stroke-miterlimit:10;"/></g><g id="Text--Icon-" serif:id="Text (Icon)"><g transform="matrix(1,0,0,1,230.997,2451.88)"><g transform="matrix(967.282,0,0,967.282,1239.56,1578.55)"><path d="M0.57,-0.723l-0.029,0.018l0.015,0.023l-0.013,0.029c-0.036,-0 -0.07,0.002 -0.102,0.007c-0.031,0.005 -0.054,0.01 -0.069,0.013c-0.011,0.028 -0.034,0.079 -0.067,0.152c0.006,0 0.037,0.002 0.093,0.006l0.022,0.017l-0.019,0.016l0.042,0.018l-0.062,0.025l0.031,0.021l-0.023,0.013l0.027,0.02l-0.022,0.026l-0.165,0.011c-0.027,0.06 -0.048,0.112 -0.064,0.155c-0.016,0.044 -0.03,0.098 -0.041,0.164l-0.03,0.021l-0.004,-0.042l-0.021,0.019l-0.005,-0.038l-0.042,0.039l0.001,-0.071l-0.039,0.063l-0.024,-0.04c0.012,-0.057 0.033,-0.126 0.062,-0.207c0.029,-0.081 0.059,-0.158 0.092,-0.232c0.032,-0.073 0.059,-0.129 0.082,-0.167l0.031,-0.017l-0.04,-0.008l0.005,-0.021l-0.022,-0.021l0.07,-0.017l-0.035,-0.017l-0.01,-0.028c0.08,-0.016 0.181,-0.024 0.302,-0.024c0.017,-0 0.03,0 0.038,0c0.008,0.001 0.014,0.001 0.017,0.001l-0.013,0.025l0.015,0.009l-0.029,0.021l0.045,0.018Z" style="fill:#82addd;fill-rule:nonzero;"/></g><g transform="matrix(967.282,0,0,967.282,1664.15,1578.55)"><path d="M0.571,-0.565c-0.015,0.032 -0.033,0.075 -0.053,0.128c-0.021,0.054 -0.042,0.111 -0.064,0.171c-0.021,0.06 -0.037,0.107 -0.048,0.141c-0.014,0.047 -0.032,0.079 -0.054,0.098c-0.022,0.018 -0.051,0.03 -0.089,0.037c-0.019,0.003 -0.04,0.004 -0.065,0.004c-0.033,-0 -0.066,-0.002 -0.099,-0.005c-0.033,-0.003 -0.057,-0.007 -0.073,-0.013l0.021,-0.017l-0.008,-0.014l0.025,-0.017l-0.009,-0.024l-0.038,0.014l0.002,-0.036l-0.042,0.009c0.01,-0.064 0.032,-0.146 0.067,-0.245c0.034,-0.1 0.068,-0.182 0.101,-0.249l0.025,-0.007l0.007,0.085l0.044,-0.063l0.015,0.022l0.038,-0.047l0.003,0.042l0.041,-0.016c-0.021,0.041 -0.043,0.085 -0.064,0.133c-0.022,0.047 -0.041,0.096 -0.059,0.145c-0.018,0.05 -0.03,0.093 -0.036,0.13c0.004,0.011 0.016,0.016 0.037,0.016c0.01,-0 0.02,-0.002 0.029,-0.005c0.009,-0.003 0.015,-0.007 0.017,-0.012c0.009,-0.021 0.024,-0.06 0.046,-0.116c0.022,-0.057 0.038,-0.097 0.048,-0.122c0.009,-0.024 0.021,-0.053 0.036,-0.087c0.015,-0.035 0.028,-0.064 0.041,-0.089l0.012,0.011l0.01,0.034l0.036,-0.04l0.001,0.074l0.048,-0.076l0.017,0.03l0.034,-0.024Z" style="fill:#82addd;fill-rule:nonzero;"/></g><g transform="matrix(967.282,0,0,967.282,2157.47,1578.55)"><path d="M0.531,-0.36c-0.013,0.034 -0.036,0.067 -0.07,0.098c-0.033,0.032 -0.067,0.055 -0.1,0.07l0.078,0.187l-0.045,-0.018l-0.005,0.051l-0.054,-0.068l-0.007,0.053l-0.041,-0.029l-0.013,0.037l-0.079,-0.174l-0.012,0.003c-0.006,0.015 -0.012,0.03 -0.018,0.047c-0.005,0.017 -0.011,0.035 -0.017,0.054c-0.005,0.02 -0.012,0.043 -0.02,0.072l-0.029,-0.034l-0.039,0.053l-0.013,-0.06l-0.023,0.017l-0.007,-0.056l-0.037,0.064l-0.015,-0.019c0.007,-0.032 0.016,-0.068 0.028,-0.111c0.012,-0.042 0.025,-0.087 0.041,-0.135c0.015,-0.048 0.031,-0.093 0.046,-0.135c0.015,-0.042 0.031,-0.079 0.046,-0.113l0.029,0.031l0.01,-0.03l0.028,0.001l-0.005,-0.043l0.026,-0.007l-0.002,-0.029c0.019,-0.004 0.045,-0.008 0.076,-0.012c0.032,-0.003 0.061,-0.005 0.087,-0.005c0.033,0.001 0.063,0.008 0.089,0.023c0.026,0.014 0.046,0.034 0.06,0.058c0.015,0.025 0.022,0.053 0.022,0.083c-0,0.025 -0.005,0.05 -0.015,0.076Zm-0.184,-0.067c-0.002,-0.001 -0.006,-0.002 -0.011,-0.003c-0.006,-0.001 -0.012,-0.002 -0.019,-0.002c-0.015,0 -0.028,0.003 -0.04,0.01l-0.044,0.107c0.031,0 0.06,-0.01 0.087,-0.029c0.025,-0.018 0.037,-0.037 0.037,-0.059c-0,-0.01 -0.003,-0.018 -0.01,-0.024Z" style="fill:#82addd;fill-rule:nonzero;"/></g><g transform="matrix(967.282,0,0,967.282,2665.19,1578.55)"><path d="M0.481,-0.553l-0.026,0.016l0.002,0.03l-0.056,-0.013l0.041,0.069l-0.031,0.002l0.014,0.036l-0.017,0.005c-0.03,-0.029 -0.056,-0.043 -0.08,-0.043c-0.01,0 -0.02,0.003 -0.031,0.008c-0.017,0.009 -0.026,0.021 -0.026,0.037c-0,0.02 0.015,0.042 0.045,0.066c0.026,0.022 0.046,0.048 0.061,0.078c0.014,0.03 0.021,0.061 0.021,0.091c-0,0.023 -0.003,0.043 -0.01,0.061c-0.009,0.023 -0.022,0.044 -0.039,0.062c-0.017,0.018 -0.036,0.032 -0.058,0.043c-0.022,0.011 -0.045,0.019 -0.07,0.024c-0.017,0.003 -0.03,0.004 -0.039,0.004c-0.072,-0 -0.137,-0.035 -0.194,-0.105l0.035,-0.013l-0.008,-0.03l0.053,0.019l-0.03,-0.062l0.035,0.009l0.009,-0.039c0.047,0.042 0.08,0.063 0.099,0.063c0.012,-0 0.023,-0.008 0.033,-0.023c0.006,-0.009 0.009,-0.018 0.009,-0.028c-0,-0.016 -0.008,-0.033 -0.023,-0.053c-0.016,-0.02 -0.04,-0.045 -0.073,-0.074c-0.027,-0.024 -0.04,-0.056 -0.04,-0.097c-0,-0.034 0.009,-0.067 0.027,-0.099c0.017,-0.032 0.038,-0.054 0.063,-0.066c0.052,-0.025 0.098,-0.037 0.138,-0.037c0.054,-0 0.109,0.02 0.166,0.059Z" style="fill:#82addd;fill-rule:nonzero;"/></g><path d="M1403.55,949.909c-1.561,-1.433 -2.947,-3.071 -4.114,-4.885c-3.658,-5.685 -4.859,-12.608 -3.328,-19.193l1.494,-6.422l-10.946,-10.459c-6.604,-6.31 -9.24,-15.72 -6.877,-24.543c2.364,-8.823 9.351,-15.655 18.225,-17.819l15.185,-3.704l-8.462,-23.53c-2.461,-6.843 -1.821,-14.418 1.753,-20.75c3.575,-6.333 9.729,-10.795 16.859,-12.224c79.083,-15.848 178.089,-23.866 297.034,-23.866c17.153,-0 29.694,0.169 37.623,0.493c7.793,0.318 13.36,0.557 16.7,0.716c8.513,0.405 16.232,5.119 20.482,12.506c4.249,7.387 4.442,16.43 0.513,23.992l-2.137,4.114c4.104,4.337 6.575,10.064 6.822,16.178c0.203,5.051 -1.128,9.961 -3.707,14.14l3.598,1.439c8.778,3.511 14.824,11.673 15.625,21.093c0.802,9.42 -3.779,18.486 -11.837,23.429l-6.35,3.895l0.617,0.961c4.565,7.11 5.23,16.044 1.769,23.751l-12.516,27.866c-4.034,8.98 -12.962,14.757 -22.806,14.757c-33.424,-0 -64.884,2.289 -94.376,6.902c-22.041,3.448 -39.659,6.484 -52.85,9.131c-9.804,23.302 -24.868,57.482 -45.197,102.537c14.119,0.911 32.082,2.125 53.888,3.646c4.953,0.345 9.69,2.158 13.609,5.206l21.254,16.53c5.947,4.626 9.491,11.686 9.646,19.219c0.049,2.365 -0.238,4.697 -0.833,6.935l7.992,3.372c9.32,3.932 15.351,13.094 15.28,23.209c-0.071,10.115 -6.23,19.191 -15.604,22.992l-18.617,7.549c2.918,4.357 4.44,9.594 4.207,14.995c-0.197,4.565 -1.633,8.903 -4.055,12.606c4.266,4.018 7.009,9.435 7.691,15.32c0.796,6.878 -1.295,13.778 -5.777,19.057l-21.254,25.032c-4.375,5.153 -10.651,8.315 -17.396,8.764l-144.573,9.624c-22.869,51.818 -41.331,96.815 -55.372,134.998c-14.996,40.78 -27.699,92.099 -38.258,153.92c-1.125,6.588 -4.841,12.451 -10.318,16.28l-29.046,20.309c-7.298,5.103 -16.758,5.938 -24.837,2.195c-7.934,-3.677 -13.36,-11.225 -14.333,-19.892c-2.63,-0.08 -5.27,-0.575 -7.82,-1.507c-5.527,-2.018 -10.057,-5.873 -12.949,-10.768l-7.024,6.535c-7.329,6.817 -18.018,8.606 -27.168,4.546c-5.052,-2.242 -9.097,-6.029 -11.684,-10.656c-4.321,3.246 -9.651,5.057 -15.222,5.011c-8.724,-0.072 -16.779,-4.686 -21.254,-12.175l-23.143,-38.729c-3.258,-5.452 -4.318,-11.938 -2.967,-18.144c12.149,-55.788 32.372,-123.457 60.746,-202.984c28.15,-78.902 57.968,-154.194 89.45,-225.879c29.828,-67.922 55.504,-120.449 76.945,-157.621Zm387.432,-70.605l-43.688,-17.475l28.102,-20.309l-14.405,-8.738l12.516,-24.088c-3.306,-0.157 -8.816,-0.393 -16.531,-0.708c-7.714,-0.315 -19.915,-0.472 -36.603,-0.472c-116.975,-0 -214.349,7.793 -292.122,23.379l9.683,26.921l33.77,16.531l-67.776,16.531l21.253,20.309l-4.723,20.309l38.73,7.793l-29.992,16.295c-21.883,36.839 -48.451,90.84 -79.701,162c-31.251,71.161 -60.849,145.903 -88.794,224.228c-27.945,78.324 -47.9,144.958 -59.865,199.903l23.143,38.729l37.785,-60.927l-0.945,68.72l40.618,-37.784l4.96,36.839l20.309,-18.42l3.778,40.619l29.047,-20.309c10.863,-63.604 24.009,-116.384 39.438,-158.341c15.428,-41.956 36.131,-92.06 62.108,-150.311l159.639,-10.627l21.254,-25.032l-26.213,-19.365l22.434,-12.516l-29.991,-20.309l59.983,-24.324l-40.855,-17.239l18.42,-15.586l-21.253,-16.531c-54.158,-3.778 -84.15,-5.667 -89.975,-5.667c32.274,-71.004 53.922,-120.045 64.942,-147.124c14.012,-3.306 36.368,-7.36 67.068,-12.161c30.7,-4.802 63.446,-7.203 98.239,-7.203l12.516,-27.866l-14.405,-22.435l28.102,-17.239Zm102.45,130.149l16.198,-20.17c6.427,-8.002 17.091,-11.263 26.895,-8.225c9.803,3.039 16.753,11.761 17.526,21.995l0.532,7.034l8.262,-3.197c9.699,-3.752 20.708,-1.109 27.646,6.639c6.937,7.747 8.354,18.981 3.557,28.208c-20.431,39.301 -40.937,81.644 -61.523,127.027c-20.507,45.21 -39.305,91.545 -56.395,139.007c-14.409,40.018 -24.747,75.531 -30.924,106.565c2.656,0.44 5.804,0.831 8.583,0.831c7.217,0 13.992,-1.019 20.306,-3.161c0.732,-0.248 1.623,-0.629 2.363,-0.963c8.634,-20.668 23.024,-56.921 43.178,-108.757c21.354,-54.921 36.68,-94.162 45.978,-117.722c9.36,-23.715 21.136,-52.19 35.334,-85.423c14.362,-33.619 27.89,-62.701 40.568,-87.253c3.575,-6.924 10.173,-11.784 17.845,-13.146c7.672,-1.362 15.54,0.932 21.278,6.202l11.572,10.627c0.946,0.869 1.82,1.806 2.616,2.801l6.254,-6.978c6.875,-7.67 17.751,-10.338 27.395,-6.722c6.493,2.435 11.533,7.383 14.175,13.499l3.394,-5.358c4.696,-7.414 12.936,-11.822 21.71,-11.615c8.774,0.208 16.796,5 21.137,12.628l2.908,5.109l10.315,-7.272c9.239,-6.514 21.699,-6.018 30.391,1.211c8.691,7.228 11.451,19.39 6.73,29.661c-14.17,30.832 -31.212,71.79 -51.144,122.865c-20.066,51.42 -40.406,106.054 -61.022,163.902c-20.551,57.669 -35.993,102.921 -46.308,135.737c-15.657,51.035 -36.269,86.023 -59.926,106.034c-23.853,20.177 -56.38,34.427 -97.99,41.781c-0.291,0.051 -0.583,0.097 -0.876,0.138c-18.941,2.659 -41.037,4.021 -66.291,4.021c-32.739,0 -65.438,-1.532 -98.096,-4.596c-34.673,-3.253 -60.268,-8.134 -76.877,-14.127c-8.5,-3.067 -14.683,-10.481 -16.173,-19.394c-1.49,-8.912 1.946,-17.935 8.986,-23.6l4.409,-3.547c-0.807,-2.779 -1.112,-5.639 -0.942,-8.455c-3.98,-0.596 -7.817,-2.152 -11.154,-4.618c-6.765,-4.999 -10.563,-13.065 -10.106,-21.465l0.121,-2.219l-8.765,1.835c-8.029,1.68 -16.371,-0.685 -22.324,-6.329c-5.952,-5.645 -8.757,-13.85 -7.505,-21.957c9.78,-63.328 31.532,-143.877 65.441,-241.595c33.709,-97.144 66.854,-178.297 99.368,-243.485c3.137,-6.288 8.775,-10.966 15.535,-12.888l24.087,-6.849c7.191,-2.044 14.919,-0.763 21.065,3.491c6.147,4.255 10.067,11.036 10.686,18.486l1.09,13.118l2.823,-4.061c4.696,-6.757 12.416,-10.771 20.645,-10.733c5.681,0.027 11.102,1.982 15.439,5.428Zm323.088,22.642l-32.825,23.143l-16.531,-29.047l-46.522,73.444l-0.944,-71.555l-34.715,38.73l-9.682,-32.826l-11.572,-10.627c-12.437,24.088 -25.701,52.623 -39.791,85.606c-14.091,32.982 -25.78,61.242 -35.069,84.779c-9.289,23.536 -24.599,62.738 -45.932,117.604c-21.332,54.866 -36.249,92.375 -44.751,112.527c-1.889,4.88 -7.242,8.816 -16.058,11.807c-8.817,2.992 -18.263,4.487 -28.339,4.487c-19.994,0 -31.959,-5.116 -35.895,-15.35c5.825,-35.58 17.397,-77.419 34.715,-125.515c17.318,-48.096 36.367,-95.052 57.149,-140.865c20.781,-45.814 41.484,-88.557 62.108,-128.231l-39.674,15.35l-3.07,-40.619l-36.603,45.578l-14.642,-21.49l-42.507,61.164l-6.849,-82.418l-24.087,6.849c-32.117,64.391 -64.824,144.565 -98.122,240.521c-33.298,95.957 -54.748,175.029 -64.352,237.216l40.619,-8.502l-1.89,34.715l36.604,-13.461l8.738,23.143l-24.088,16.531l7.793,13.461l-20.545,16.53c15.271,5.511 38.847,9.761 70.728,12.753c31.88,2.991 63.8,4.486 95.76,4.486c23.93,0 44.869,-1.259 62.816,-3.778c36.525,-6.455 65.257,-18.538 86.196,-36.249c20.939,-17.712 38.336,-49.16 52.19,-94.343c10.391,-33.062 25.937,-78.639 46.64,-136.733c20.703,-58.094 41.13,-112.96 61.282,-164.599c20.151,-51.638 37.391,-93.044 51.717,-124.216Zm82.252,41.102c4.401,-4.746 10.564,-7.695 17.247,-7.985l-1.535,-12.932c-1.47,-12.393 6.424,-23.972 18.497,-27.131l5.096,-1.334l-0.553,-7.31c-0.938,-12.411 7.395,-23.622 19.55,-26.3c19.227,-4.236 44.763,-8.179 76.618,-11.764c31.806,-3.579 60.644,-5.352 86.511,-5.352c0.164,0 0.327,0.002 0.49,0.005c36.49,0.715 69.004,9.19 97.623,25.11c29.291,16.293 51.938,38.408 68.049,66.234c16.032,27.693 24.145,58.458 24.145,92.346c0,27.018 -5.297,54.493 -16.062,82.393c-13.805,36.213 -38.189,71.171 -73.626,104.539c-27.346,25.749 -54.721,46.083 -82.038,61.131l66.37,159.372c3.873,9.299 1.786,20.014 -5.293,27.18c-7.079,7.166 -17.768,9.384 -27.114,5.625l-12.576,-5.058l-1.632,16.244c-1.018,10.13 -8.078,18.631 -17.849,21.493c-9.771,2.861 -20.301,-0.489 -26.623,-8.47l-16.334,-20.621c-2.448,5.927 -7.122,10.773 -13.155,13.391c-8.041,3.489 -17.322,2.512 -24.46,-2.574l-12.461,-8.88l-1.663,4.682c-3.414,9.608 -12.321,16.181 -22.508,16.609c-10.188,0.428 -19.615,-5.374 -23.822,-14.662l-57.287,-126.456c-0.487,1.414 -0.972,2.837 -1.453,4.267c-5.317,15.796 -10.593,32.863 -15.832,51.201l-19.837,69.429c-2.534,8.868 -9.744,15.621 -18.759,17.568c-9.014,1.948 -18.369,-1.226 -24.338,-8.257l-7.428,-8.749l-19.042,25.826c-5.833,7.912 -15.761,11.671 -25.372,9.607c-9.61,-2.065 -17.119,-9.569 -19.189,-19.178l-4.843,-22.479c-5.122,1.192 -10.578,0.759 -15.566,-1.392c-3.426,-1.476 -6.414,-3.67 -8.808,-6.371l-2.178,3.753c-4.164,7.179 -11.62,11.822 -19.9,12.395c-8.28,0.572 -16.304,-3.002 -21.417,-9.54l-14.405,-18.42c-4.549,-5.816 -6.294,-13.346 -4.767,-20.57c6.549,-30.986 15.605,-67.205 27.185,-108.653c11.494,-41.139 24.769,-85.171 39.83,-132.096c15.075,-46.97 30.111,-90.727 45.107,-131.271c15.099,-40.822 30.162,-77.847 45.181,-111.08c3.44,-7.611 10.454,-13.002 18.694,-14.368c8.241,-1.365 16.619,1.475 22.33,7.57l1.202,1.283Zm372.333,157.03c9.604,-24.874 14.405,-49.356 14.405,-73.443c0,-29.283 -6.927,-55.89 -20.781,-79.82c-13.854,-23.93 -33.376,-42.901 -58.566,-56.913c-25.19,-14.011 -53.843,-21.332 -85.96,-21.962c-25.032,0 -52.937,1.732 -83.716,5.195c-30.778,3.464 -55.456,7.242 -74.034,11.336l2.126,28.102l-25.269,6.612l4.96,41.799l-27.158,-0.944l-9.682,28.81l-28.103,-29.991c-14.798,32.746 -29.637,69.232 -44.514,109.457c-14.878,40.224 -29.795,83.637 -44.751,130.238c-14.957,46.601 -28.142,90.329 -39.556,131.183c-11.414,40.854 -20.348,76.553 -26.803,107.095l14.405,18.42l35.895,-61.872l6.613,54.079l22.434,-16.531l12.516,58.094l37.785,-51.245l27.866,32.825l19.837,-69.429c5.352,-18.735 10.744,-36.171 16.176,-52.308c5.432,-16.137 11.217,-31.29 17.357,-45.459l11.572,-3.07l76.277,168.377l12.752,-35.895l39.438,28.102l6.848,-51.245l52.19,65.886l4.959,-49.356l43.452,17.476l-75.332,-180.893c32.274,-14.484 64.587,-36.958 96.94,-67.422c32.353,-30.464 54.827,-62.226 67.422,-95.288Zm-178.059,-64.706c6.455,5.511 9.682,13.225 9.682,23.143c0,21.097 -11.886,40.146 -35.659,57.149c-26.449,18.735 -54.551,28.103 -84.307,28.103l42.744,-103.672c11.178,-6.297 24.009,-9.446 38.493,-9.446c6.927,0 12.988,0.591 18.184,1.772c5.195,1.18 8.816,2.164 10.863,2.951Zm-15.31,21.676l-1.094,-0.249c-3.61,-0.821 -7.829,-1.15 -12.643,-1.15c-6.908,0 -13.287,0.957 -19.104,3.007l-21.671,52.56c10.036,-3.855 19.814,-9.171 29.375,-15.939c15.701,-11.245 25.129,-22.811 25.129,-36.762c0,-0.506 0.016,-1 0.008,-1.467Zm204.612,245.597l-2.817,-5.818c-4.246,-8.769 -3.012,-19.207 3.164,-26.742c6.176,-7.536 16.167,-10.798 25.599,-8.357l8.931,2.31l2.957,-12.787c1.994,-8.621 8.396,-15.546 16.834,-18.208c8.439,-2.663 17.656,-0.667 24.237,5.249c25.307,22.75 46.033,38.821 62.399,47.921c6.867,3.819 12.163,6.598 16.529,6.598c1.385,0 2.466,-1.047 3.737,-2.117c2.62,-2.206 5.07,-5.219 7.56,-8.922c2.762,-4.266 4.321,-8.667 4.321,-13.317c0,-10.783 -6.518,-22.518 -17.19,-36.279c-14.253,-18.379 -36.695,-40.912 -67.152,-67.769l-0.152,-0.135c-31.007,-27.793 -47.043,-65.102 -47.043,-112.369c0,-37.228 9.556,-73.288 28.879,-108.123c20.09,-36.217 44.549,-60.569 72.38,-74.024l0.155,-0.074c54.386,-25.833 102.514,-38.313 144.153,-38.313c57.034,-0 115.453,20.195 174.885,61.643c6.918,4.824 10.936,12.812 10.688,21.242c-0.248,8.43 -4.731,16.167 -11.92,20.576l-12.175,7.465l0.91,13.997c0.513,7.886 -2.733,15.55 -8.753,20.669c-5.364,4.56 -12.368,6.622 -19.278,5.763l9.94,16.744c4.444,7.485 4.674,16.744 0.607,24.441c-3.404,6.441 -9.406,11.012 -16.365,12.653l1.221,3.096c2.568,6.508 2.291,13.794 -0.763,20.089c-3.055,6.295 -8.607,11.021 -15.308,13.032l-16.531,4.959c-8.689,2.607 -18.108,0.302 -24.612,-6.022c-22.442,-21.822 -41.803,-34.487 -60.03,-34.487c-6.069,0 -12.188,1.742 -18.483,4.873c-6.817,3.525 -11.541,7.371 -11.541,13.58c0,5.337 2.563,10.692 6.522,16.503c6.072,8.91 15.326,18.038 27.47,27.674c0.129,0.102 0.256,0.205 0.383,0.31c28.247,23.335 50.032,51.331 65.383,83.965c15.432,32.803 23.042,65.807 23.042,98.963c-0,25.344 -3.858,47.859 -11.279,67.593c-9.705,25.874 -24,48.688 -42.868,68.454c-18.518,19.4 -39.642,35.091 -63.362,47.084c-23.238,11.748 -47.898,20.137 -73.987,25.147c-0.327,0.063 -0.655,0.119 -0.984,0.169c-18.332,2.767 -32.176,4.058 -41.515,4.058c-76.563,0 -145.878,-36.226 -206.851,-110.71c-5.116,-6.25 -6.897,-14.587 -4.782,-22.382c2.115,-7.795 7.865,-14.088 15.439,-16.895l12.409,-4.599l-1.89,-7.044c-2.41,-8.982 0.365,-18.559 7.203,-24.862c5.388,-4.965 12.596,-7.251 19.694,-6.465Zm448.065,-389.127c-54.63,-38.1 -108.158,-57.149 -160.584,-57.149c-38.572,-0 -83.047,11.965 -133.426,35.895c-23.773,11.493 -44.24,32.707 -61.4,63.643c-17.161,30.936 -25.741,62.935 -25.741,95.996c0,39.359 12.91,70.61 38.729,93.753c31.96,28.181 55.417,51.914 70.374,71.2c14.956,19.286 22.434,36.486 22.434,51.599c0,9.446 -2.833,18.499 -8.501,27.158c-9.919,14.799 -20.624,22.198 -32.117,22.198c-18.577,0 -50.458,-20.309 -95.642,-60.927l-8.738,37.784l-33.769,-8.737l29.046,59.982l-51.481,-18.419l7.793,29.046l-33.77,12.516c55.417,67.698 117.919,101.546 187.506,101.546c8.501,0 21.096,-1.259 37.784,-3.778c23.773,-4.566 46.247,-12.202 67.422,-22.907c21.175,-10.706 40.028,-24.717 56.558,-42.035c16.531,-17.318 29.047,-37.313 37.549,-59.983c6.455,-17.161 9.682,-36.761 9.682,-58.802c-0,-29.598 -6.888,-59.038 -20.663,-88.321c-13.776,-29.283 -33.337,-54.394 -58.684,-75.333c-28.969,-22.986 -43.453,-44.239 -43.453,-63.761c0,-15.272 8.423,-27.237 25.269,-35.896c10.076,-5.038 19.994,-7.557 29.755,-7.557c23.143,0 48.962,13.855 77.458,41.563l16.531,-4.959l-13.697,-34.714l29.991,-1.89l-39.673,-66.831l54.315,12.516l-1.889,-29.047l25.032,-15.349Z" style="fill:#fcfaff;"/></g><g transform="matrix(1,0,0,1,-56.4404,7.56117)"><g transform="matrix(967.282,0,0,967.282,189.612,806.662)"><path d="M1.056,-0.753c-0.053,0.069 -0.101,0.136 -0.146,0.2c-0.045,0.065 -0.088,0.129 -0.127,0.192c-0.04,0.063 -0.076,0.126 -0.111,0.188c-0.034,0.062 -0.069,0.13 -0.105,0.204l-0.011,-0.013l0.006,-0.069l-0.049,0.068l-0.013,-0.031l-0.026,0.02l-0.008,-0.039l-0.04,0.05l-0.015,-0.016c0.001,-0.03 0.002,-0.06 0.004,-0.09c0.002,-0.029 0.004,-0.061 0.007,-0.096c0.003,-0.035 0.007,-0.07 0.011,-0.105c0.005,-0.035 0.01,-0.075 0.016,-0.118l-0.003,0c-0.03,0.047 -0.057,0.092 -0.081,0.133c-0.023,0.042 -0.047,0.087 -0.071,0.136c-0.025,0.048 -0.052,0.105 -0.084,0.17l-0.01,-0.011l-0.005,-0.045l-0.033,0.036l-0.014,-0.059l-0.041,0.068l-0.012,-0.038l-0.028,0.035l-0.013,-0.016c0.001,-0.051 0.004,-0.111 0.01,-0.179c0.005,-0.069 0.013,-0.14 0.023,-0.213c0.009,-0.074 0.02,-0.146 0.033,-0.218c0.013,-0.071 0.027,-0.136 0.042,-0.195l0.018,-0.011l0.013,0.043l0.02,-0.019l0.007,0.044l0.022,-0.029l0.021,-0.026l0.004,0.081l0.046,-0.062l0.017,0.03c-0.012,0.027 -0.03,0.088 -0.053,0.184c-0.006,0.027 -0.011,0.049 -0.013,0.067c-0.003,0.018 -0.006,0.039 -0.008,0.063c-0.002,0.025 -0.004,0.044 -0.005,0.058l0.002,-0c0.02,-0.037 0.047,-0.079 0.082,-0.128c0.035,-0.049 0.058,-0.082 0.07,-0.1c0.009,-0.014 0.022,-0.033 0.039,-0.056c0.017,-0.023 0.037,-0.051 0.06,-0.083c0.023,-0.032 0.038,-0.054 0.046,-0.065l0.007,0.031l0.027,-0.013l-0,0.027l0.024,-0.021l0.024,-0.015l-0.014,0.066l0.033,-0.032l0.027,-0.014l0.01,0.031c-0.009,0.019 -0.02,0.049 -0.031,0.09c-0.012,0.041 -0.021,0.076 -0.027,0.106c-0.015,0.07 -0.024,0.135 -0.026,0.193l0.002,0.001c0.001,-0.002 0.01,-0.019 0.028,-0.052c0.018,-0.032 0.032,-0.057 0.042,-0.074c0.01,-0.017 0.021,-0.035 0.034,-0.055c0.013,-0.02 0.028,-0.042 0.045,-0.065c0.007,-0.012 0.023,-0.034 0.046,-0.066c0.023,-0.032 0.055,-0.074 0.097,-0.125l0.012,0.014l0.024,-0.011l-0.003,0.044l0.031,-0.014l-0.003,0.044l0.057,-0.055l0.006,0.031l0.034,-0.006Z" style="fill:#82addd;fill-rule:nonzero;"/></g><g transform="matrix(967.282,0,0,967.282,1035.87,806.662)"><path d="M0.354,-0.578c-0.022,0.048 -0.048,0.11 -0.08,0.188c-0.031,0.078 -0.061,0.155 -0.09,0.233c-0.028,0.077 -0.049,0.138 -0.062,0.183l-0.02,-0.027l-0.028,0.016l0.001,-0.082l-0.046,0.066l-0.023,-0.031l-0.049,0.039c0.016,-0.057 0.033,-0.112 0.051,-0.165c0.017,-0.053 0.035,-0.106 0.054,-0.157c0.019,-0.051 0.038,-0.1 0.058,-0.147c0.019,-0.047 0.039,-0.09 0.058,-0.129l0.014,0.035l0.058,-0.066l0.007,0.07l0.042,-0.031l0.013,0.031l0.042,-0.026Z" style="fill:#82addd;fill-rule:nonzero;"/></g><g transform="matrix(967.282,0,0,967.282,1302.85,806.662)"><path d="M0.593,-0.571c-0.018,0.035 -0.038,0.078 -0.059,0.127c-0.02,0.049 -0.041,0.101 -0.061,0.155c-0.021,0.055 -0.039,0.107 -0.056,0.158c-0.016,0.05 -0.029,0.092 -0.039,0.128l-0.019,-0.017l-0.02,0.03l-0.02,-0.037l-0.019,0.021l-0.016,-0.039l-0.019,0.051l-0.014,0.009l-0.058,-0.206l-0.002,-0.001c-0.009,0.016 -0.019,0.035 -0.028,0.057c-0.01,0.023 -0.021,0.051 -0.033,0.085c-0.012,0.034 -0.019,0.051 -0.019,0.052l-0.019,-0.027l-0.032,0.014l-0.002,-0.054l-0.054,0.078l-0.012,-0.036l-0.031,0.02c0.011,-0.047 0.029,-0.106 0.055,-0.179c0.025,-0.073 0.053,-0.147 0.083,-0.22c0.029,-0.073 0.057,-0.137 0.082,-0.192l0.019,0.027l0.02,-0.022l0.024,0.055l0.021,-0.078l0.019,0.034l0.016,-0.02l0.027,0.262l0.002,0c0.004,-0.015 0.011,-0.034 0.019,-0.056c0.009,-0.022 0.017,-0.042 0.024,-0.06c0.008,-0.018 0.02,-0.045 0.036,-0.082c0.016,-0.036 0.024,-0.056 0.026,-0.06l0.025,0.018l0.03,-0.017l0.001,0.065l0.05,-0.069l0.008,0.032l0.026,-0.023l0.019,0.017Z" style="fill:#82addd;fill-rule:nonzero;"/></g><g transform="matrix(967.282,0,0,967.282,1806.68,806.662)"><path d="M0.49,-0.253c-0.017,0.055 -0.04,0.102 -0.07,0.14c-0.03,0.038 -0.063,0.066 -0.099,0.085c-0.037,0.018 -0.073,0.028 -0.11,0.029c-0.103,-0 -0.167,-0.003 -0.19,-0.01l0.034,-0.039l-0.03,-0l-0.009,-0.031l-0.039,0.009c0.006,-0.037 0.016,-0.081 0.031,-0.134c0.014,-0.052 0.032,-0.106 0.054,-0.163c0.021,-0.056 0.043,-0.107 0.067,-0.151l0.026,0.022l0.026,-0.013l-0,-0.044l0.035,0l-0.009,-0.039c0.025,-0.005 0.079,-0.008 0.162,-0.008c0.034,0.001 0.061,0.009 0.084,0.026c0.022,0.016 0.038,0.038 0.048,0.065c0.01,0.028 0.015,0.06 0.015,0.096c0,0.049 -0.009,0.103 -0.026,0.16Zm-0.147,-0.043c0.008,-0.027 0.012,-0.051 0.012,-0.074c-0,-0.019 -0.003,-0.034 -0.009,-0.045c-0.006,-0.011 -0.014,-0.017 -0.025,-0.017c-0.023,0 -0.042,0 -0.057,0.001c-0.013,0.025 -0.027,0.055 -0.04,0.09c-0.013,0.035 -0.025,0.069 -0.035,0.101c-0.01,0.032 -0.017,0.059 -0.023,0.083c0.019,0 0.034,0 0.043,0.001c0.01,0 0.016,0.001 0.019,0.001c0.021,-0 0.043,-0.014 0.065,-0.042c0.022,-0.027 0.039,-0.06 0.05,-0.099Z" style="fill:#82addd;fill-rule:nonzero;"/></g><g transform="matrix(967.282,0,0,967.282,2293.28,806.662)"><path d="M0.545,-0.544l-0.259,0.299l-0.098,0.264l-0.023,-0.04l-0.022,0.016l-0.009,-0.05l-0.048,0.063l-0.012,-0.029l-0.045,0.026l0.094,-0.264l-0.064,-0.295l0.009,-0.015l0.042,0.046l0.009,-0.077l0.038,0.04l0.011,-0.027l0.031,0.02l0.024,-0.022l0.032,0.133l0.113,-0.13l0.018,0.037l0.037,-0.017l-0.003,0.049l0.065,-0.058l0.011,0.031l0.049,-0.031l-0,0.031Z" style="fill:#82addd;fill-rule:nonzero;"/></g><g transform="matrix(967.282,0,0,967.282,3087.03,806.662)"><path d="M0.635,-0.692l-0.029,0.004l0.007,0.031l-0.041,-0.008l-0.005,0.03l-0.049,-0.024l0.024,0.058l-0.044,-0.004l-0.017,0.025c-0.012,-0.017 -0.022,-0.031 -0.031,-0.039c-0.009,-0.009 -0.019,-0.014 -0.031,-0.014c-0.025,-0 -0.045,0.006 -0.061,0.018c-0.015,0.013 -0.034,0.034 -0.055,0.064c-0.015,0.021 -0.03,0.049 -0.047,0.084c-0.017,0.036 -0.032,0.071 -0.044,0.106c-0.012,0.034 -0.019,0.062 -0.021,0.084c-0.001,0.006 -0.001,0.014 -0.001,0.025c-0,0.031 0.006,0.055 0.017,0.073c0.011,0.018 0.026,0.027 0.046,0.027c0.025,-0 0.054,-0.015 0.087,-0.045l-0.007,0.022l0.027,-0.007l-0.015,0.043l0.055,-0.033l-0.012,0.047l0.021,-0.005l-0.007,0.032l0.035,-0.01c0.002,0 -0.005,0.013 -0.02,0.038c-0.075,0.061 -0.144,0.091 -0.206,0.091c-0.031,-0 -0.065,-0.007 -0.102,-0.02c-0.066,-0.024 -0.099,-0.086 -0.099,-0.188c0,-0.019 0.001,-0.037 0.003,-0.053c0.004,-0.039 0.01,-0.074 0.018,-0.107c0.007,-0.032 0.018,-0.067 0.032,-0.103c0.014,-0.037 0.032,-0.076 0.055,-0.116c0.023,-0.041 0.052,-0.083 0.085,-0.127c0.015,-0.02 0.039,-0.041 0.072,-0.064c0.033,-0.023 0.063,-0.038 0.092,-0.047c0.027,-0.008 0.053,-0.012 0.077,-0.012c0.084,0 0.147,0.041 0.191,0.124Z" style="fill:#82addd;fill-rule:nonzero;"/></g><g transform="matrix(967.282,0,0,967.282,3553.32,806.662)"><path d="M0.354,-0.578c-0.022,0.048 -0.048,0.11 -0.08,0.188c-0.031,0.078 -0.061,0.155 -0.09,0.233c-0.028,0.077 -0.049,0.138 -0.062,0.183l-0.02,-0.027l-0.028,0.016l0.001,-0.082l-0.046,0.066l-0.023,-0.031l-0.049,0.039c0.016,-0.057 0.033,-0.112 0.051,-0.165c0.017,-0.053 0.035,-0.106 0.054,-0.157c0.019,-0.051 0.038,-0.1 0.058,-0.147c0.019,-0.047 0.039,-0.09 0.058,-0.129l0.014,0.035l0.058,-0.066l0.007,0.07l0.042,-0.031l0.013,0.031l0.042,-0.026Z" style="fill:#82addd;fill-rule:nonzero;"/></g><g transform="matrix(967.282,0,0,967.282,3820.29,806.662)"><path d="M0.559,-0.52l-0.078,0.032l0.039,0.032l-0.031,0.024l0.012,0.027l-0.154,-0c-0.025,0.052 -0.049,0.11 -0.071,0.175c-0.022,0.066 -0.047,0.144 -0.075,0.236l-0.024,-0.022l-0.04,0.043l-0.015,-0.061l-0.032,0.028l-0.014,-0.028l-0.04,0.04l-0.012,-0.011c0.009,-0.026 0.019,-0.06 0.033,-0.101c0.013,-0.041 0.024,-0.076 0.033,-0.104c0.009,-0.028 0.02,-0.06 0.033,-0.094c0.012,-0.034 0.025,-0.068 0.039,-0.101l-0.141,-0l0.03,-0.034l-0.021,-0.022l0.056,-0.021l-0.017,-0.03l0.062,-0.015l-0.061,-0.027l0.007,-0.023l0.459,0l-0.026,0.034l0.049,0.023Z" style="fill:#82addd;fill-rule:nonzero;"/></g><g transform="matrix(967.282,0,0,967.282,4246.91,806.662)"><path d="M0.545,-0.544l-0.259,0.299l-0.098,0.264l-0.023,-0.04l-0.022,0.016l-0.009,-0.05l-0.048,0.063l-0.012,-0.029l-0.045,0.026l0.094,-0.264l-0.064,-0.295l0.009,-0.015l0.042,0.046l0.009,-0.077l0.038,0.04l0.011,-0.027l0.031,0.02l0.024,-0.022l0.032,0.133l0.113,-0.13l0.018,0.037l0.037,-0.017l-0.003,0.049l0.065,-0.058l0.011,0.031l0.049,-0.031l-0,0.031Z" style="fill:#82addd;fill-rule:nonzero;"/></g><path d="M392.888,28.424l16.538,5.522l15.037,-18.708l44.453,14.383l0.448,8.746l2.902,-3.921l41.822,2.508l16.531,29.047l0.93,22.93c-11.636,24.957 -27.982,82.669 -49.568,172.985c-5.815,25.104 -10.075,46.038 -12.755,62.807c-0.647,4.046 -1.273,8.28 -1.878,12.702c8.225,-12.117 16.986,-24.678 26.284,-37.683c33.459,-46.795 55.735,-78.688 66.957,-95.913c9.246,-13.869 21.996,-32.164 38.256,-54.881c16.072,-22.453 35.296,-49.2 57.67,-80.241c22.186,-30.779 37.032,-51.636 44.531,-62.573l45.032,8.756l0.458,2.075l13.578,8.563l1.029,-0.903l3.375,-2.493l23.38,-14.406l34.489,24.367l11.602,-5.957l35.211,14.558l9.682,29.992l-1.352,18.703c-8.381,17.062 -17.786,44.61 -28.487,82.55c-11.088,39.31 -19.664,73.074 -25.728,101.373c-5.052,23.219 -9.339,45.741 -12.856,67.568c4.245,-7.512 8.023,-14.113 11.333,-19.803c9.695,-16.667 20.831,-34.777 33.411,-54.328c12.491,-19.412 27.141,-40.48 43.956,-63.191c7.559,-11.899 22.502,-33.394 44.861,-64.463c22.648,-31.468 54.228,-72.161 94.756,-122.066l35.793,-0.348l8.03,-3.731l35.47,24.464l-0.706,9.827l15.262,10.538l22.488,-21.719l41.933,13.34l1.098,5.812l8.576,-1.481l24.146,39.778c-50.475,66.307 -97.424,130.576 -140.846,192.808c-43.361,62.146 -84.023,123.587 -121.984,184.325c-37.924,60.679 -73.309,120.889 -106.151,180.631c-32.883,59.816 -66.705,125.271 -101.467,196.362l-41.516,5.199l-10.627,-12.516l-1.235,-3.882l-0.986,1.37l-43.356,-4.985l-0.387,-0.928l-27.434,-10.154l-13.656,17.071l-37.743,1.499l-14.642,-15.586l-6.769,-17.792c0.794,-29.407 2.066,-58.536 3.815,-87.387c1.746,-28.808 4.165,-60.155 7.26,-94.042c3.091,-33.844 6.698,-67.965 10.819,-102.364l0.465,-3.86c-6.744,11.534 -13.235,22.878 -19.473,34.032c-22.509,40.25 -45.447,83.511 -68.815,129.779c-23.479,46.486 -50.452,101.296 -80.919,164.43l-40.995,5.971l-9.682,-10.627l-4.463,-9.897l-36.35,-9.43l-9.265,15.386l-37.17,-4.437l-3.441,4.308l-39.028,0.053l-12.516,-15.586l-5.504,-16.054c0.795,-49.592 3.966,-107.926 9.529,-175.002c5.541,-66.808 12.941,-135.912 22.202,-207.311c9.264,-71.422 20.192,-141.894 32.782,-211.415c12.63,-69.744 26.258,-133.29 40.874,-190.642l11.107,-15.107l17.239,-10.627l37.019,13.948l5.331,17.374Zm818.085,49.942l-32.825,5.668l-5.668,-29.991l-55.259,53.37l2.834,-42.744l-29.992,13.697l3.07,-42.743l-23.379,10.863l-11.572,-13.697c-40.145,49.434 -71.436,89.738 -93.87,120.91c-22.435,31.172 -37.273,52.505 -44.515,63.997c-16.688,22.514 -31.212,43.374 -43.57,62.581c-12.359,19.207 -23.301,36.997 -32.826,53.37c-9.524,16.374 -22.946,40.343 -40.264,71.909c-17.317,31.566 -26.449,48.215 -27.393,49.946l-1.89,-0.944c1.89,-56.362 10.234,-118.549 25.033,-186.561c6.14,-28.653 14.838,-62.935 26.095,-102.845c11.256,-39.909 21.293,-68.838 30.109,-86.786l-9.682,-29.991l-26.213,13.461l-31.881,30.936l13.697,-63.762l-23.379,14.406l-23.143,20.309l-0,-25.977l-26.213,12.516l-6.612,-29.991c-7.557,11.02 -22.514,32.038 -44.869,63.052c-22.356,31.015 -41.563,57.74 -57.622,80.174c-16.058,22.435 -28.653,40.501 -37.784,54.197c-11.178,17.161 -33.652,49.356 -67.422,96.587c-33.77,47.231 -60.337,88.479 -79.701,123.744l-1.89,0c1.26,-13.225 2.913,-31.763 4.96,-55.614c2.046,-23.851 4.447,-44.397 7.202,-61.636c2.755,-17.239 7.124,-38.768 13.107,-64.588c22.198,-92.886 39.28,-152.161 51.245,-177.823l-16.531,-29.047l-44.396,59.983l-4.015,-78.402l-20.309,25.268l-21.254,27.866l-6.848,-42.508l-19.129,18.42l-12.752,-41.563l-17.239,10.627c-14.484,56.834 -27.984,119.809 -40.5,188.923c-12.517,69.114 -23.38,139.172 -32.59,210.176c-9.209,71.003 -16.57,139.723 -22.08,206.161c-5.51,66.438 -8.659,124.216 -9.446,173.336l12.516,15.586l27.158,-34.006l11.571,36.84l39.674,-65.886l13.697,57.149l31.88,-34.715l4.723,43.452l9.683,10.627c30.542,-63.289 57.582,-118.234 81.118,-164.835c23.537,-46.6 46.64,-90.171 69.311,-130.71c22.671,-40.54 48.648,-83.559 77.931,-129.058l2.833,0c-5.982,41.878 -11.02,79.899 -15.113,114.062c-4.094,34.164 -7.675,68.051 -10.745,101.664c-3.07,33.612 -5.471,64.706 -7.203,93.28c-1.732,28.575 -2.991,57.425 -3.778,86.55l14.641,15.586l38.729,-48.411l7.793,37.784l25.032,-19.364l12.516,29.991l47.467,-65.886l-5.904,66.831l10.627,12.516c34.951,-71.476 68.957,-137.283 102.018,-197.424c33.062,-60.14 68.681,-120.753 106.859,-181.837c38.178,-61.085 79.072,-122.879 122.682,-185.38c43.609,-62.502 90.761,-127.051 141.455,-193.646Zm15.368,147.163l32.566,-37.082l43.658,13.984l2.435,24.105l5.308,-3.919l37.922,10.483l1.244,2.982l15.702,-9.677l35.838,31.71c-20.975,45.706 -46.6,105.971 -76.888,180.791c-30.362,75.003 -59.234,149.731 -86.614,224.184c-27.215,74.002 -47.077,132.519 -59.553,175.564l-44.055,7.981l-6.198,-8.314l-7.979,4.51l-37.3,-22.063l0.009,-0.736l-38.558,0.558l-6.793,-9.178l-27.207,21.658l-39.613,-26.41c15.835,-55.583 32.226,-109.226 49.17,-160.929c16.938,-51.685 34.549,-102.421 52.833,-152.207c18.314,-49.868 37.065,-97.754 56.251,-143.659c19.274,-46.113 38.313,-88.124 57.109,-126.034l40.713,1.698Zm151.951,22.159l-40.618,25.032l-12.516,-29.991l-40.618,29.991l-6.849,-67.776l-56.204,63.998l-13.461,-34.006c-18.577,37.469 -37.391,78.993 -56.44,124.57c-19.05,45.578 -37.667,93.123 -55.85,142.637c-18.184,49.513 -35.699,99.971 -52.544,151.374c-16.846,51.402 -33.141,104.733 -48.884,159.993l47.467,-37.784l22.198,29.991l44.397,-63.761l-0.945,79.111l27.158,-15.35l19.364,25.977c12.595,-43.452 32.629,-102.53 60.101,-177.233c27.473,-74.703 56.441,-149.681 86.904,-224.935c30.464,-75.254 56.244,-135.867 77.34,-181.838Zm122.034,-27.062l29.931,4.895l4.672,-17.383l45.982,-5.679l8.241,14.792l28.796,8.523l15.315,149.389c2.227,-5.457 4.418,-10.732 6.571,-15.827c7.353,-17.394 18.817,-43.763 34.393,-79.105c15.477,-35.118 24.001,-54.483 25.572,-58.097l37.608,-10.268l11.045,8.014l15.043,-8.561l30.988,17.709l10.512,-14.46l34.318,6.632l2.141,-1.899l33.152,-0.02l18.42,16.294l5.631,30.23c-17.53,33.819 -36.136,74.081 -55.838,120.777c-19.864,47.079 -39.61,96.934 -59.239,149.565c-19.641,52.664 -37.405,103.058 -53.29,151.183c-15.822,47.932 -28.415,88.966 -37.768,123.104l-34.518,10.15l-6.262,9.51l-42.882,-1.88l-6.626,-12.283l-16.656,-2.887l-3.084,8.263l-10.072,12.396l-13.461,8.501l-37.417,-14.371l-39.138,-139.214c-8.779,21.038 -18.886,47.192 -30.332,78.461c-11.879,32.454 -17.906,48.911 -18.061,49.377l-44.11,6.555l-6.674,-9.412l-12.315,5.359l-23.415,-14.749l-20.354,29.248l-44.237,-6.375l-1.377,-4.13l-2.908,1.877l-37.907,-26.686c10.706,-45.857 28.609,-104.627 53.774,-176.29c24.925,-70.977 51.828,-142.112 80.709,-213.405c28.892,-71.318 55.53,-133.572 79.91,-186.764l43.181,-3.957l2.036,2.898Zm376.136,33.674l-18.42,-16.294l-25.033,22.198l-7.793,-30.936l-48.411,66.595l-0.945,-62.817l-29.046,16.531l-24.088,-17.475c-1.574,3.621 -10.115,23.025 -25.623,58.211c-15.507,35.187 -26.921,61.44 -34.242,78.757c-7.32,17.318 -15.074,36.762 -23.261,58.33c-8.186,21.569 -14.326,39.674 -18.42,54.315l-2.125,0l-25.977,-253.392l-15.586,19.365l-18.42,-33.062l-20.309,75.569l-23.143,-53.37l-19.365,21.49l-18.419,-26.213c-24.245,52.898 -50.734,114.809 -79.466,185.734c-28.732,70.925 -55.496,141.692 -80.292,212.301c-24.796,70.61 -42.468,128.507 -53.016,173.691l29.991,-19.365l11.572,34.715l52.426,-75.333l1.889,52.19l30.936,-13.461l18.42,25.977c0.157,-0.472 6.258,-17.161 18.302,-50.065c12.043,-32.903 22.631,-60.219 31.762,-81.945c9.131,-21.726 18.184,-40.224 27.158,-55.495l2.125,0.944l55.968,199.077l13.461,-8.502l18.42,-49.355l15.586,37.548l18.42,-20.309l19.365,35.895l19.128,-29.047l18.42,16.531c9.446,-34.478 22.159,-75.923 38.139,-124.335c15.979,-48.411 33.848,-99.105 53.606,-152.082c19.758,-52.977 39.635,-103.16 59.629,-150.548c19.994,-47.388 38.886,-88.242 56.677,-122.563Zm80.21,39.858l0,-22.383l25,-25l2.565,0l-1.653,-7.151l19.183,-30.092c25.374,-5.367 79.278,-8.334 161.743,-8.334l0.724,0.01c38.297,1.111 69.838,11.284 94.907,29.6c25.246,18.445 43.821,43.363 55.466,74.944c10.761,29.183 16.303,62.945 16.303,101.339c0,50.089 -8.71,104.149 -26.336,162.145c-17.052,56.823 -41.098,104.636 -71.852,143.581c-31.405,39.768 -66.306,69.276 -104.453,88.819c-38.771,19.862 -77.793,30.097 -117.55,30.97c-103.738,0 -167.255,-3.952 -190.617,-10.65l-11.982,-40.428l7.085,-8.155l-8.487,-6.415l-2.009,-7.089l-14.592,3.374l-30.338,-28.183c5.636,-36.39 15.706,-80.475 30.278,-132.242c14.435,-51.278 32.094,-104.551 52.988,-159.817c21.023,-55.606 43.105,-105.308 66.214,-149.119l38.205,-7.469l9.208,7.745Zm323.97,267.849c16.845,-55.417 25.268,-107.056 25.268,-154.916c0,-35.108 -4.92,-66.005 -14.759,-92.69c-9.84,-26.685 -25.426,-47.821 -46.759,-63.407c-21.332,-15.586 -48.293,-23.851 -80.882,-24.796c-79.82,-0 -132.009,2.598 -156.569,7.793l8.737,37.784l-34.006,0l0,42.508l-25.032,12.516l-25.268,-21.254c-22.671,42.98 -44.318,91.746 -64.942,146.297c-20.624,54.551 -38.06,107.135 -52.308,157.75c-14.248,50.616 -24.127,93.713 -29.637,129.294l37.784,-8.738l8.502,29.992l29.047,-0l-32.826,37.784c22.514,6.455 83.756,9.682 183.727,9.682c35.581,-0.787 70.964,-10.194 106.151,-28.22c35.187,-18.026 67.264,-45.381 96.232,-82.063c28.968,-36.683 51.482,-81.788 67.54,-135.316Zm-142.164,-41.563c-11.021,37.155 -27.197,69.154 -48.53,95.997c-21.332,26.842 -42.232,40.264 -62.698,40.264c-2.519,-0.315 -8.502,-0.709 -17.948,-1.181c-9.446,-0.472 -23.458,-0.709 -42.035,-0.709c5.51,-22.828 13.028,-49.71 22.553,-80.646c9.524,-30.936 20.742,-63.407 33.651,-97.413c12.91,-34.006 25.741,-62.974 38.493,-86.904c14.17,-0.63 32.589,-0.945 55.26,-0.945c10.548,0 18.656,5.353 24.324,16.059c5.668,10.705 8.501,25.268 8.501,43.688c0,21.883 -3.857,45.814 -11.571,71.79Zm-23.966,-7.117c6.952,-23.408 10.537,-44.954 10.537,-64.673c0,-13.441 -1.46,-24.179 -5.596,-31.991c-0.689,-1.302 -0.946,-2.756 -2.229,-2.756c-15.195,0 -28.442,0.142 -39.74,0.429c-10.164,20.463 -20.367,44.232 -30.64,71.293c-12.709,33.477 -23.755,65.442 -33.131,95.897c-5.4,17.536 -10.144,33.745 -14.231,48.627c4.194,0.108 7.883,0.243 11.069,0.402c8.416,0.421 14.338,0.811 17.773,1.128c14.146,-0.56 27.251,-12.172 42.052,-30.797c19.445,-24.467 34.089,-53.684 44.136,-87.559Zm328.343,-287.062l26.46,-8.317l13.662,8.821l8.9,-8.264l41.319,12.477l19.603,81.556l77.506,-89.056l41.307,5.411l6.794,13.864l13.794,-6.262l27.244,18.831l26.476,-23.501l40.161,10.347l0.148,0.417l20.744,-13.172l38.401,21.105l-0,29.991l-6.109,16.375l-247.585,285.621l-93.12,251.26l-45.131,3.745l-9.386,-16.376l-31.642,-12.629l-16.125,21.118l-42.986,-5.654l-0.705,-1.711l-18.723,10.785l-36.03,-30.05l88.526,-248.564l-60.36,-278.303l2.964,-18.111l8.738,-14.641l39.957,-4.015l3.527,3.876l2.264,-19.871l42.953,-14.4l16.454,17.297Zm377.519,54.248l-0,-29.991l-47.231,29.991l-10.626,-29.991l-63.053,55.968l3.07,-47.231l-35.896,16.295l-17.475,-35.659l-109.339,125.633l-30.936,-128.703l-23.143,21.49l-29.991,-19.365l-10.627,25.977l-36.84,-38.729l-8.501,74.624l-40.619,-44.633l-8.737,14.642l61.872,285.272l-90.919,255.282l43.452,-25.032l11.572,28.102l46.522,-60.928l8.737,48.412l21.254,-15.586l22.198,38.729l94.698,-255.518l250.558,-289.051Zm811.986,-69.722l2.03,4.909l-25.316,34.455l-27.951,-2.484l-8.261,12.038l-41.444,-0.324c-9.92,-14.949 -18.639,-26.252 -26.393,-33.726c-3.916,-3.775 -8.308,-6.014 -13.361,-6.34c-17.205,0.087 -31.513,3.92 -42.608,12.556c-13.889,10.811 -29.894,29.674 -48.512,56.169c-13.538,19.255 -28.065,45.278 -43.71,77.996c-15.964,33.386 -29.668,66.462 -41.103,99.234c-10.877,31.171 -17.382,56.345 -19.177,76.041c-0.56,5.181 -0.799,12.395 -0.799,21.637c-0,24.002 3.679,43.212 12.425,57.319c5.723,9.233 13.392,14.267 23.502,14.267c19.678,0 41.578,-13.464 67.517,-36.975l18.385,11.864l11.654,-2.94l18.488,20.263l13.188,-7.971l37.163,27.547l-6.326,24.919l8.029,7.886l3.071,-0.881l6.89,-0.968l9.158,1.719l5.97,3.997c3.973,-12.532 7.976,-24.955 12.011,-37.267c16.938,-51.685 34.55,-102.421 52.834,-152.207c18.314,-49.868 37.065,-97.754 56.251,-143.659c19.274,-46.113 38.313,-88.124 57.108,-126.034l40.713,1.698l32.566,-37.082l43.658,13.984l2.436,24.105l5.308,-3.919l37.921,10.483l1.244,2.982l15.703,-9.677l3.813,3.374l8.245,-6.147l442.364,0l0.03,-0.264l42.953,-14.4l16.454,17.297l26.459,-8.317l13.663,8.821l8.9,-8.264l41.319,12.477l19.603,81.556l77.506,-89.056l41.307,5.411l6.794,13.864l13.794,-6.262l27.244,18.831l26.476,-23.501l40.161,10.347l0.148,0.417l20.743,-13.172l38.402,21.105l-0,29.991l-6.11,16.375l-247.584,285.621l-93.12,251.26l-45.131,3.745l-9.387,-16.376l-31.641,-12.629l-16.125,21.118l-42.987,-5.654l-0.704,-1.711l-18.723,10.785l-36.03,-30.05l88.526,-248.564l-27.414,-126.397l-7.693,11.848l-133.324,0c-21.574,45.512 -41.804,96.36 -60.715,152.534c-21.189,62.939 -45.28,138.749 -72.276,227.428l-40.928,11.039l-4.803,-4.46l-21.719,23.441l-42.626,-11.065l-4.683,-19.192l-33.895,-6.59l-17.224,17.224l-34.588,0.736l-11.571,-10.627l-6.822,-26.275c8.32,-25.117 18.798,-57.533 31.435,-97.25c12.699,-39.911 23.545,-73.591 32.536,-101.039c9.044,-27.607 19.594,-58.11 31.652,-91.508c7.828,-21.682 15.989,-43.147 24.483,-64.396l-98.634,0c-30.217,74.674 -58.956,149.076 -86.218,223.206c-27.214,74.002 -47.076,132.519 -59.553,175.564l-44.055,7.981l-6.198,-8.314l-7.979,4.51l-37.3,-22.063l0.009,-0.736l-38.557,0.558l-6.793,-9.178l-27.208,21.658l-39.613,-26.41c4.198,-14.733 8.434,-29.33 12.71,-43.791c-75.931,60.119 -146.032,89.102 -209.356,89.102c-32.285,-0 -68.022,-6.821 -107.19,-20.846c-72.617,-26.178 -112.164,-93.473 -112.164,-205.356c-0,-19.82 1.015,-37.893 3.011,-54.22c4.515,-38.364 10.37,-73.625 17.544,-105.785c7.252,-32.512 17.904,-67.108 32.001,-103.775c14.025,-36.483 32.488,-74.962 55.432,-115.417c22.78,-40.168 50.657,-81.997 83.709,-125.529c16.029,-20.974 40.999,-43.56 75.275,-67.348c34.163,-23.71 66.285,-39.822 96.166,-48.65c28.451,-8.449 55.705,-12.606 81.742,-12.606c90.217,-0 159.458,43.928 206.765,133.266l-18.762,36.477l-0.966,0.129l0.753,3.298l-29.191,30.097l-14.525,-2.854l-0.646,3.784l-27.658,14.155Zm261.151,41.766l1.169,-3.925l0.625,0c0.144,-0.315 0.289,-0.63 0.433,-0.944l-40.618,25.032l-12.517,-29.991l-40.618,29.991l-6.848,-67.776l-56.205,63.998l-13.46,-34.006c-18.578,37.469 -37.391,78.993 -56.441,124.57c-19.05,45.578 -37.666,93.123 -55.85,142.637c-18.184,49.513 -35.698,99.971 -52.544,151.374c-16.846,51.402 -33.14,104.733 -48.884,159.993l47.467,-37.784l22.198,29.991l44.397,-63.761l-0.944,79.111l27.157,-15.35l19.365,25.977c12.594,-43.452 32.628,-102.53 60.101,-177.233c27.472,-74.703 56.44,-149.681 86.904,-224.935c29.4,-72.627 54.438,-131.617 75.113,-176.969Zm1.794,-3.925c-0.595,1.297 -1.192,2.605 -1.794,3.925l-5.443,18.274l59.038,25.977l-59.983,14.641l16.295,29.047l-54.079,20.309l20.309,21.254l-29.047,32.825l136.496,0c-13.539,32.117 -26.291,64.745 -38.257,97.885c-11.965,33.141 -22.434,63.407 -31.408,90.801c-8.974,27.394 -19.797,61.006 -32.471,100.837c-12.673,39.832 -23.182,72.342 -31.526,97.532l11.571,10.626l38.729,-38.729l13.697,26.922l30.936,-26.922l14.406,59.039l38.729,-41.799l23.143,21.489c27.078,-88.95 51.245,-164.992 72.498,-228.123c21.254,-63.132 44.161,-119.651 68.721,-169.558l149.012,0l-11.571,-25.977l29.991,-23.379l-37.784,-30.936l29.732,-12.171l-11.189,-51.59l8.737,-14.642l10.931,12.012l14.923,-19.569l-443.342,0Zm428.419,19.569l-10.109,13.257l38.603,18.053l-28.494,-31.31Zm28.494,31.31l1.194,1.311l0.081,-0.715l-1.275,-0.596Zm1.275,0.596l7.589,3.549l-45.837,18.765l50.683,233.682l-90.919,255.282l43.452,-25.032l11.571,28.102l46.523,-60.928l8.737,48.412l21.254,-15.586l22.198,38.729l94.698,-255.518l250.558,-289.051l-0,-29.991l-47.231,29.991l-10.627,-29.991l-63.052,55.968l3.07,-47.231l-35.896,16.295l-17.475,-35.659l-109.339,125.633l-30.936,-128.703l-23.143,21.49l-29.991,-19.365l-10.627,25.977l-36.84,-38.729l-8.42,73.909Zm-652.232,-162.703c-42.35,-79.977 -103.907,-119.965 -184.671,-119.965c-23.773,-0 -48.648,3.857 -74.625,11.571c-27.708,8.187 -57.385,23.261 -89.029,45.224c-31.645,21.962 -54.866,42.625 -69.665,61.99c-32.274,42.507 -59.55,83.401 -81.827,122.681c-22.277,39.28 -40.225,76.632 -53.843,112.055c-13.618,35.423 -23.93,68.838 -30.936,100.247c-7.006,31.408 -12.713,65.847 -17.121,103.316c-1.889,15.429 -2.834,32.511 -2.834,51.246c-0,98.239 31.881,158.852 95.642,181.837c36.053,12.91 68.957,19.365 98.712,19.365c60.297,-0 126.735,-29.362 199.313,-88.085c14.484,-24.403 20.939,-36.604 19.364,-36.604l-33.77,9.682l6.613,-30.936l-20.309,4.723l11.571,-45.577l-53.134,32.117l14.641,-41.563l-26.213,6.612l6.849,-21.254c-31.96,28.968 -60.062,43.452 -84.307,43.452c-19.05,0 -33.967,-8.698 -44.751,-26.094c-10.784,-17.397 -16.176,-40.894 -16.176,-70.492c-0,-10.391 0.315,-18.499 0.944,-24.324c1.889,-20.781 8.699,-47.978 20.427,-81.591c11.729,-33.612 25.78,-67.539 42.154,-101.782c16.373,-34.242 31.644,-61.439 45.813,-81.59c20.467,-29.126 38.336,-49.632 53.607,-61.518c15.271,-11.887 34.793,-17.83 58.566,-17.83c11.335,0.473 21.372,4.92 30.109,13.343c8.738,8.423 18.696,21.057 29.874,37.902l16.531,-24.087l42.507,3.778l-23.143,-55.968l47.231,23.143l4.959,-29.047l39.674,7.793l-6.849,-29.991l28.102,-3.779Z" style="fill:#fcfaff;"/></g></g></g><defs><radialGradient id="_Radial1" cx="0" cy="0" r="1" gradientUnits="userSpaceOnUse" gradientTransform="matrix(1928.94,0,0,1928.94,2431.22,2254.45)"><stop offset="0" style="stop-color:#ddd;stop-opacity:1"/><stop offset="1" style="stop-color:#999;stop-opacity:1"/></radialGradient></defs></svg>